# xmcd CD database file
#
# Track frame offsets:
#	150
#	1692
#	13890
#	27522
#	43460
#	61607
#	79850
#	90432
#	103505
#	114740
#	127280
#	141440
#	149730
#	161647
#	185597
#
# Disc length: 2600 seconds
#
# Revision: 0
# Processed by: cddbd v1.4PL0 Copyright (c) Steve Scherf et al.
# Submitted via: CDex 1.51
#
DISCID=d70a260f
DTITLE=Nightriders - Cowboy's Dream
DYEAR=1997
DGENRE=Country
TTITLE0=LBSF
TTITLE1=She looks in one Direction (That's not where I stand)
TTITLE2=Freaked out on a single speed pill
TTITLE3=Girls from out on Town
TTITLE4=Billy Joe
TTITLE5=I live for the Music I love
TTITLE6=Dogsitting
TTITLE7=In a real country way
TTITLE8=When
TTITLE9='Round and 'round
TTITLE10=Wish she was on TV
TTITLE11=Move it on over
TTITLE12=Man
TTITLE13=Sweet Champagne, Lukewarm Beer
TTITLE14=Laundromat Blues
EXTD=YEAR: 1997
EXTT0=
EXTT1=
EXTT2=
EXTT3=
EXTT4=
EXTT5=
EXTT6=
EXTT7=
EXTT8=
EXTT9=
EXTT10=
EXTT11=
EXTT12=
EXTT13=
EXTT14=
PLAYORDER=
